<mxfile host="65bd71144e">
    <diagram id="khpBU8QEBwp5g9HlSJ94" name="Page-1">
        <mxGraphModel dx="999" dy="595" grid="1" gridSize="10" guides="1" tooltips="1" connect="1" arrows="1" fold="1" page="1" pageScale="1" pageWidth="1169" pageHeight="827" math="0" shadow="0">
            <root>
                <mxCell id="0"/>
                <mxCell id="1" parent="0"/>
                <mxCell id="HUOcQPAIlOD7z22A-bNq-5" style="edgeStyle=orthogonalEdgeStyle;rounded=0;orthogonalLoop=1;jettySize=auto;html=1;fillColor=#fff2cc;strokeColor=#d6b656;" parent="1" source="HUOcQPAIlOD7z22A-bNq-1" target="HUOcQPAIlOD7z22A-bNq-3" edge="1">
                    <mxGeometry relative="1" as="geometry">
                        <Array as="points">
                            <mxPoint x="530" y="420"/>
                            <mxPoint x="530" y="420"/>
                        </Array>
                    </mxGeometry>
                </mxCell>
                <mxCell id="4" value="Requete HTTP" style="edgeLabel;html=1;align=center;verticalAlign=middle;resizable=0;points=[];" parent="HUOcQPAIlOD7z22A-bNq-5" vertex="1" connectable="0">
                    <mxGeometry x="-0.2421" relative="1" as="geometry">
                        <mxPoint x="51" as="offset"/>
                    </mxGeometry>
                </mxCell>
                <mxCell id="HUOcQPAIlOD7z22A-bNq-1" value="Plusieurs pages avec le même header, et le même footer&lt;br&gt;Authentification à gérer&lt;br&gt;Requête ajax à faire sur chaque page (+-)&lt;br&gt;&lt;br&gt;Style ..." style="whiteSpace=wrap;html=1;aspect=fixed;fillColor=#fff2cc;strokeColor=#d6b656;" parent="1" vertex="1">
                    <mxGeometry x="140" y="300" width="260" height="260" as="geometry"/>
                </mxCell>
                <mxCell id="HUOcQPAIlOD7z22A-bNq-2" value="FRONT (vscode)&lt;br&gt;" style="text;html=1;strokeColor=none;fillColor=none;align=center;verticalAlign=middle;whiteSpace=wrap;rounded=0;" parent="1" vertex="1">
                    <mxGeometry x="240" y="270" width="40" height="20" as="geometry"/>
                </mxCell>
                <mxCell id="HUOcQPAIlOD7z22A-bNq-6" style="edgeStyle=orthogonalEdgeStyle;rounded=0;orthogonalLoop=1;jettySize=auto;html=1;entryX=1.007;entryY=0.686;entryDx=0;entryDy=0;entryPerimeter=0;fillColor=#e1d5e7;strokeColor=#9673a6;" parent="1" source="HUOcQPAIlOD7z22A-bNq-3" target="HUOcQPAIlOD7z22A-bNq-1" edge="1">
                    <mxGeometry relative="1" as="geometry">
                        <Array as="points">
                            <mxPoint x="575" y="478"/>
                        </Array>
                    </mxGeometry>
                </mxCell>
                <mxCell id="5" value="Reponse HTTP" style="edgeLabel;html=1;align=center;verticalAlign=middle;resizable=0;points=[];" parent="HUOcQPAIlOD7z22A-bNq-6" vertex="1" connectable="0">
                    <mxGeometry x="0.1911" y="-3" relative="1" as="geometry">
                        <mxPoint x="41" as="offset"/>
                    </mxGeometry>
                </mxCell>
                <mxCell id="HUOcQPAIlOD7z22A-bNq-10" style="edgeStyle=orthogonalEdgeStyle;rounded=0;orthogonalLoop=1;jettySize=auto;html=1;entryX=0.5;entryY=1;entryDx=0;entryDy=0;entryPerimeter=0;endArrow=block;endFill=1;" parent="1" source="HUOcQPAIlOD7z22A-bNq-3" target="HUOcQPAIlOD7z22A-bNq-9" edge="1">
                    <mxGeometry relative="1" as="geometry"/>
                </mxCell>
                <mxCell id="HUOcQPAIlOD7z22A-bNq-11" value="Entity&lt;br&gt;Framework&amp;nbsp;&lt;br&gt;(ORM)" style="edgeLabel;html=1;align=center;verticalAlign=middle;resizable=0;points=[];" parent="HUOcQPAIlOD7z22A-bNq-10" vertex="1" connectable="0">
                    <mxGeometry x="0.0583" y="-3" relative="1" as="geometry">
                        <mxPoint as="offset"/>
                    </mxGeometry>
                </mxCell>
                <mxCell id="HUOcQPAIlOD7z22A-bNq-3" value="" style="whiteSpace=wrap;html=1;aspect=fixed;fillColor=#e1d5e7;strokeColor=#9673a6;" parent="1" vertex="1">
                    <mxGeometry x="750" y="290" width="260" height="260" as="geometry"/>
                </mxCell>
                <mxCell id="HUOcQPAIlOD7z22A-bNq-4" value="API (Back)&lt;br&gt;(Visual studio 2022)" style="text;html=1;strokeColor=none;fillColor=none;align=center;verticalAlign=middle;whiteSpace=wrap;rounded=0;" parent="1" vertex="1">
                    <mxGeometry x="820" y="260" width="120" height="20" as="geometry"/>
                </mxCell>
                <mxCell id="HUOcQPAIlOD7z22A-bNq-7" value="VANILLA" style="shape=document;whiteSpace=wrap;html=1;boundedLbl=1;fillColor=#fff2cc;strokeColor=#d6b656;" parent="1" vertex="1">
                    <mxGeometry x="360" y="550" width="120" height="80" as="geometry"/>
                </mxCell>
                <mxCell id="HUOcQPAIlOD7z22A-bNq-8" value="ASP.NET CORE WEBAPI" style="shape=document;whiteSpace=wrap;html=1;boundedLbl=1;fillColor=#e1d5e7;strokeColor=#9673a6;" parent="1" vertex="1">
                    <mxGeometry x="960" y="540" width="120" height="80" as="geometry"/>
                </mxCell>
                <mxCell id="HUOcQPAIlOD7z22A-bNq-9" value="BDD" style="shape=cylinder3;whiteSpace=wrap;html=1;boundedLbl=1;backgroundOutline=1;size=15;" parent="1" vertex="1">
                    <mxGeometry x="1022" y="181" width="60" height="80" as="geometry"/>
                </mxCell>
                <mxCell id="3" value="CORS policy&lt;br&gt;AllowAnyone" style="image;html=1;image=img/lib/clip_art/people/Security_Man_128x128.png" parent="1" vertex="1">
                    <mxGeometry x="720" y="390" width="80" height="80" as="geometry"/>
                </mxCell>
                <mxCell id="6" value="FETCH" style="text;html=1;strokeColor=none;fillColor=none;align=center;verticalAlign=middle;whiteSpace=wrap;rounded=0;rotation=-30;" vertex="1" parent="1">
                    <mxGeometry x="380" y="403" width="40" height="20" as="geometry"/>
                </mxCell>
            </root>
        </mxGraphModel>
    </diagram>
</mxfile>